
<svg xmlns="http://www.w3.org/2000/svg" version="1.1" xmlns:xlink="http://www.w3.org/1999/xlink" preserveAspectRatio="none" x="0px" y="0px" width="1000px" height="1000px" viewBox="0 0 1000 1000">
<defs>
<path id="Layer0_0_1_STROKES" stroke="#FFFFFF" stroke-width="44" stroke-linejoin="round" stroke-linecap="square" fill="none" d="
M 719.35 329.15
Q 817.45 334.25 818.25 258.2 818.35 238.7 802.05 208.3 747.1 89.3 673.45 67.6 599.9 45.8 581.7 112.45 558.7 211.2 550.65 323.8 631.25 330.9 719.35 329.15 Z
M 550.65 323.8
Q 543.95 418.1 547.35 522.3 558.95 630.3 635.6 604.35 712.55 578.4 773.05 502.35 833.5 426.05 738.35 400.4
L 678.9 388.7
M 182.1 972.6
Q 231 772.1 245.25 571.35 245.65 563.65 246.2 555.9 268.75 433.4 356.5 406.4 444.1 379.55 463.2 353.6 482.25 327.7 484 316.25 430.75 308.8 381.05 296.7 167.05 254.35 302.15 120.35 437.3 -13.8 484.95 46.5 530.4 104.3 484 316.25 488.45 316.9 492.9 317.55 493 317.55 493.15 317.55 521.45 321.25 550.65 323.8"/>
</defs>

<g transform="matrix( 1, 0, 0, 1, 0,0) ">
<use xlink:href="#Layer0_0_1_STROKES"/>
</g>
</svg>
